<svg width="32" height="32" viewBox="0 0 32 32" fill="none" xmlns="http://www.w3.org/2000/svg">
<rect width="32" height="32" fill="#3F3D3B"/>
<path d="M23.3358 16.6542L20.0391 21.4381C19.9794 21.525 20.0124 21.6057 20.0294 21.6362C20.0464 21.6667 20.0974 21.738 20.2057 21.738H26.799C26.9069 21.738 26.9584 21.6667 26.9754 21.6362C26.9924 21.6057 27.0254 21.525 26.9657 21.4381L23.669 16.6542C23.6156 16.5768 23.5349 16.5684 23.5029 16.5684C23.4708 16.5684 23.3902 16.5768 23.3368 16.6542H23.3358Z" fill="white"/>
<path d="M18.5641 21.7375C18.6716 21.7375 18.7229 21.6649 18.7399 21.6339C18.7568 21.6028 18.7898 21.5207 18.7297 21.4323L11.3141 10.4741C11.2609 10.3953 11.1805 10.3867 11.1485 10.3867C11.1166 10.3867 11.0362 10.3953 10.9829 10.4741L7.40273 15.7782C7.3577 15.8446 7.35819 15.9301 7.40273 15.9964L11.2391 21.6501C11.2764 21.7045 11.3379 21.7375 11.4047 21.7375H18.5641Z" fill="white"/>
<path d="M6.86158 21.738C7.8897 21.738 8.72316 20.9078 8.72316 19.8836C8.72316 18.8595 7.8897 18.0293 6.86158 18.0293C5.83346 18.0293 5 18.8595 5 19.8836C5 20.9078 5.83346 21.738 6.86158 21.738Z" fill="white"/>
<path d="M19.4779 10.3867C19.4008 10.3867 19.3291 10.4247 19.2865 10.4885L15.8635 15.5553C15.8189 15.6216 15.8189 15.7075 15.8635 15.7743L19.3122 20.8629C19.3655 20.9427 19.4459 20.9508 19.4779 20.9508C19.5098 20.9508 19.5902 20.9422 19.6435 20.8629L26.6222 10.7412C26.7239 10.5899 26.6144 10.3867 26.4308 10.3867L19.4779 10.3867Z" fill="white"/>
</svg>
