<svg width="108" height="25" viewBox="0 0 108 25" fill="none" xmlns="http://www.w3.org/2000/svg">
<g clip-path="url(#clip0_383_145199)">
<path fill-rule="evenodd" clip-rule="evenodd" d="M32.9524 18.6723C33.8417 18.6723 34.5771 18.4825 35.1577 18.1023C35.7386 17.7228 36.029 17.1385 36.029 16.3498C36.029 15.5902 35.7348 15.0202 35.147 14.64C34.5586 14.2605 33.7916 14.0702 32.8449 14.0702H31.5968V18.6079C31.8261 18.6508 32.2782 18.6723 32.9524 18.6723ZM34.9212 11.4787C35.4013 11.1133 35.6418 10.6294 35.6418 10.0271C35.6418 9.41094 35.4161 8.94485 34.9643 8.62952C34.5123 8.31419 33.8776 8.15641 33.0599 8.15641C32.3716 8.15641 31.884 8.19199 31.5968 8.26363V12.027H32.8665C33.7555 12.027 34.4406 11.8444 34.9212 11.4787ZM30.5319 6.14574C31.2704 6.0809 32.0128 6.04883 32.7587 6.04883C33.7483 6.04883 34.5694 6.11695 35.2221 6.25296C35.8749 6.38944 36.4452 6.61535 36.9328 6.93044C37.4202 7.21744 37.8041 7.59692 38.0839 8.07003C38.3636 8.54338 38.5032 9.08835 38.5032 9.7045C38.5032 10.3787 38.2989 10.9948 37.8902 11.5539C37.4813 12.1131 36.8899 12.5364 36.1152 12.8229V12.866C36.9469 13.0671 37.6427 13.4826 38.2022 14.113C38.7617 14.7444 39.0414 15.5186 39.0414 16.4357C39.0414 17.669 38.5605 18.6798 37.5998 19.468C36.5384 20.3571 34.7095 20.8014 32.1135 20.8014C30.8226 20.8014 29.7037 20.7296 28.7568 20.5863V6.37142C29.2014 6.28527 29.7932 6.21012 30.5319 6.14574Z" fill="#3F3D3B"/>
<path fill-rule="evenodd" clip-rule="evenodd" d="M47.8195 12.0703C48.3217 11.6548 48.5725 11.1025 48.5725 10.4145C48.5725 9.6832 48.3359 9.13143 47.8626 8.75828C47.3893 8.38583 46.7295 8.19925 45.8831 8.19925C45.1659 8.19925 44.635 8.24209 44.2909 8.32847V12.6937H45.7753C46.6363 12.6937 47.3171 12.4863 47.8195 12.0703ZM45.5819 6.04883C46.6578 6.04883 47.5612 6.142 48.2929 6.32857C49.0245 6.51492 49.641 6.81597 50.1433 7.23149C51.0038 7.93425 51.4343 8.91629 51.4343 10.1778C51.4343 11.0524 51.1795 11.8051 50.6703 12.436C50.1611 13.0671 49.5407 13.5041 48.8093 13.7478V13.812C49.3112 14.0131 49.7236 14.3429 50.0464 14.8013C50.3691 15.2603 50.6239 15.8552 50.8103 16.5863L51.0469 17.5325C51.09 17.7191 51.183 18.0882 51.3265 18.64C51.4696 19.1923 51.5917 19.6295 51.6924 19.9519C51.7924 20.2745 51.8786 20.5076 51.9505 20.6509H49.0245C48.7664 20.1347 48.4362 19.0024 48.0348 17.253C47.8338 16.3213 47.5469 15.6796 47.174 15.3285C46.8009 14.9771 46.2414 14.7945 45.4959 14.78H44.2909V20.6509H41.4512V6.37142C42.5986 6.15651 43.9755 6.04883 45.5819 6.04883Z" fill="#3F3D3B"/>
<path fill-rule="evenodd" clip-rule="evenodd" d="M59.4156 8.37203H59.3512C59.0786 9.57623 58.8561 10.4869 58.6842 11.1032L57.6513 14.5225H61.2012L60.1257 11.1248L59.4156 8.37203ZM53.0684 20.6516L57.6513 6.15723H61.3305L65.9779 20.6516H62.9009L61.6532 16.6731H57.1996L56.0376 20.6516H53.0684Z" fill="#3F3D3B"/>
<path fill-rule="evenodd" clip-rule="evenodd" d="M68.0859 20.6516H70.9475V6.15723H68.0859V20.6516Z" fill="#3F3D3B"/>
<path fill-rule="evenodd" clip-rule="evenodd" d="M85.732 20.6352H83.7367H83.6876C83.0365 20.6352 82.4392 20.274 82.1373 19.6976L77.0414 9.96967V20.6352H74.2881V6.16113H75.0462H77.0414H77.0906C77.7417 6.16113 78.3389 6.52235 78.6408 7.09893L83.7367 16.8266V6.16113H86.4901V20.6352H85.732Z" fill="#3F3D3B"/>
<path fill-rule="evenodd" clip-rule="evenodd" d="M93.1111 5.56348H90.6945L89.8954 7.15277H92.7729V19.2395H91.744V8.18444H89.3768L88.6719 9.58621H90.2383V20.6546H94.2774V6.72015C94.2774 6.08153 93.7554 5.56348 93.1111 5.56348Z" fill="#3F3D3B"/>
<path fill-rule="evenodd" clip-rule="evenodd" d="M107.003 19.2502L97.9411 19.2504L102.743 12.1332C102.746 12.1285 102.748 12.1254 102.751 12.1219C103.026 11.7396 103.196 11.3672 103.269 10.9835L103.273 10.9641C103.3 10.8199 103.313 10.6708 103.313 10.5214C103.313 9.83479 103.043 9.19313 102.552 8.7144C102.063 8.23801 101.41 7.97559 100.714 7.97559C100.019 7.97559 99.3663 8.23801 98.8775 8.7144C98.3863 9.19313 98.1158 9.83479 98.1158 10.5214H99.6803C99.6803 9.9399 100.174 9.50588 100.768 9.53983C101.297 9.56979 101.727 9.99608 101.727 10.5212C101.727 10.7213 101.669 10.9081 101.568 11.0652C101.562 11.0732 95.1191 20.6539 95.1191 20.6539H107.658L107.003 19.2502Z" fill="#3F3D3B"/>
<path fill-rule="evenodd" clip-rule="evenodd" d="M95.5432 10.5216H97.1293C97.1293 9.56717 97.5024 8.67175 98.1794 8.00012C98.8568 7.32873 99.7571 6.95885 100.715 6.95885C101.672 6.95885 102.573 7.32873 103.25 8.00012C103.927 8.67175 104.3 9.5646 104.3 10.5146C104.3 11.208 104.099 11.8798 103.718 12.4576L99.8728 18.2344H106.528L105.837 16.7537H102.685C102.685 16.7537 104.372 14.3374 104.961 13.3619C105.551 12.3866 105.812 11.494 105.833 10.5146C105.841 10.1688 105.798 9.831 105.733 9.50443C105.26 7.16158 103.205 5.39648 100.704 5.39648C97.8537 5.39648 95.5432 7.69509 95.5432 10.5216C95.5432 10.5239 95.5432 10.5192 95.5432 10.5216Z" fill="#3F3D3B"/>
<path fill-rule="evenodd" clip-rule="evenodd" d="M6.94409 23.9183H5.44328V20.5075C5.13272 20.3469 4.72637 20.124 4.47062 19.9339C1.43645 17.68 -0.303711 14.3528 -0.303711 10.8053C-0.303711 4.67495 4.68585 -0.3125 10.8193 -0.3125C12.7065 -0.3125 14.5713 0.168805 16.2117 1.07945C17.0434 1.54085 18.1903 2.64345 18.6992 3.34434C19.677 4.6897 20.286 5.74525 20.6729 6.76638C21.4062 8.70191 21.9725 9.76799 22.4276 10.6246C22.6955 11.129 22.9269 11.5647 23.1269 12.0547C23.319 12.5254 23.3068 13.0142 23.093 13.4309C22.8496 13.905 22.3678 14.2493 21.7367 14.4005L21.0729 14.5464L21.082 17.868C21.082 18.958 20.3068 19.8972 19.2381 20.1036L17.1012 20.5161V23.6381H15.6004V19.278L18.9533 18.6305C19.3171 18.5602 19.5812 18.2405 19.5812 17.8701L19.5684 13.3408L21.4008 12.9384C21.6306 12.8831 21.736 12.7881 21.7577 12.7457C21.7701 12.7216 21.7552 12.6657 21.7369 12.6214C21.5657 12.2014 21.361 11.8161 21.1017 11.328C20.627 10.4342 20.0361 9.3218 19.269 7.29779C18.9315 6.40658 18.3812 5.45918 17.4848 4.22595C17.0881 3.6798 16.0866 2.72586 15.4831 2.3911C14.0649 1.60382 12.4524 1.18783 10.8193 1.18783C5.51378 1.18783 1.19709 5.50226 1.19709 10.8053C1.19709 13.8734 2.71663 16.7617 5.36623 18.7297C5.60559 18.9076 6.19907 19.215 6.51736 19.3667L6.94409 19.5706V23.9183Z" fill="#3F3D3B"/>
<path fill-rule="evenodd" clip-rule="evenodd" d="M16.6718 7.57422H13.5758C13.4175 7.57422 13.2714 7.65849 13.1924 7.79568L11.6443 10.4754C11.5652 10.6126 11.5652 10.7814 11.6443 10.9183L13.1924 13.598C13.2714 13.735 13.4175 13.8195 13.5758 13.8195H16.6718C16.8302 13.8195 16.9763 13.735 17.0555 13.598L18.6034 10.9183C18.6825 10.7814 18.6825 10.6126 18.6034 10.4754L17.0555 7.79568C16.9763 7.65849 16.8302 7.57422 16.6718 7.57422Z" fill="#3F3D3B"/>
<path fill-rule="evenodd" clip-rule="evenodd" d="M10.0673 11.1729H6.97159C6.81326 11.1729 6.66688 11.2574 6.58795 11.3943L5.03984 14.074C4.96068 14.2112 4.96068 14.38 5.03984 14.5169L6.58795 17.1967C6.66688 17.3336 6.81326 17.4181 6.97159 17.4181H10.0673C10.2257 17.4181 10.3721 17.3336 10.4512 17.1967L11.9989 14.5169C12.078 14.38 12.078 14.2112 11.9989 14.074L10.4512 11.3943C10.3721 11.2574 10.2257 11.1729 10.0673 11.1729Z" fill="#3F3D3B"/>
<path fill-rule="evenodd" clip-rule="evenodd" d="M10.0673 3.68164H6.97159C6.81326 3.68164 6.66688 3.76592 6.58795 3.9031L5.03984 6.58282C4.96068 6.72 4.96068 6.88878 5.03984 7.02573L6.58795 9.70545C6.66688 9.84239 6.81326 9.9269 6.97159 9.9269H10.0673C10.2257 9.9269 10.3721 9.84239 10.4512 9.70545L11.9989 7.02573C12.078 6.88878 12.078 6.72 11.9989 6.58282L10.4512 3.9031C10.3721 3.76592 10.2257 3.68164 10.0673 3.68164Z" fill="#3F3D3B"/>
</g>
<defs>
<clipPath id="clip0_383_145199">
<rect width="107.692" height="24.2308" fill="white"/>
</clipPath>
</defs>
</svg>
