<svg width="196" height="101" viewBox="0 0 196 101" fill="none" xmlns="http://www.w3.org/2000/svg">
<path d="M163.158 55.7642L133.824 98.3317C133.293 99.1042 133.587 99.8224 133.738 100.094C133.889 100.365 134.343 101 135.307 101H193.974C194.934 101 195.392 100.365 195.543 100.094C195.695 99.8224 195.988 99.1042 195.457 98.3317L166.123 55.7642C165.648 55.0752 164.93 55 164.645 55C164.36 55 163.642 55.0752 163.167 55.7642H163.158Z" fill="#3F3D3B"/>
<path d="M120.696 101C121.652 101 122.109 100.354 122.26 100.078C122.41 99.8016 122.703 99.0707 122.169 98.2845L56.1848 0.777675C55.7109 0.0764926 54.9957 0 54.7113 0C54.427 0 53.7118 0.0764926 53.2378 0.777675L21.3809 47.9736C20.9802 48.5643 20.9846 49.325 21.3809 49.9157L55.517 100.222C55.8488 100.707 56.3959 101 56.9905 101H120.696Z" fill="#3F3D3B"/>
<path d="M16.5645 101C25.7127 101 33.1289 93.6127 33.1289 84.5C33.1289 75.3873 25.7127 68 16.5645 68C7.41616 68 0 75.3873 0 84.5C0 93.6127 7.41616 101 16.5645 101Z" fill="#3F3D3B"/>
<path d="M128.833 0C128.148 0 127.51 0.337606 127.131 0.90598L96.6724 45.9903C96.2759 46.58 96.2759 47.345 96.6724 47.939L127.359 93.218C127.833 93.9274 128.549 94 128.833 94C129.118 94 129.833 93.9231 130.307 93.218L192.404 3.15393C193.309 1.80778 192.335 9.54147e-05 190.701 9.54147e-05L128.833 0Z" fill="#3F3D3B"/>
</svg>
