<svg width="652" height="105" viewBox="0 0 652 105" fill="none" xmlns="http://www.w3.org/2000/svg">
<g clip-path="url(#clip0_40_4576)">
<path d="M224.443 43L243.769 -0.360731H253.68L273.068 43H262.538L246.68 4.71867H250.645L234.725 43H224.443ZM234.106 33.7084L236.769 26.0893H259.069L261.795 33.7084H234.106ZM277.567 43V-0.360731H296.336C300.218 -0.360731 303.563 0.279356 306.371 1.55953C309.179 2.79841 311.347 4.59478 312.875 6.94865C314.403 9.30252 315.167 12.1106 315.167 15.373C315.167 18.5941 314.403 21.3816 312.875 23.7354C311.347 26.048 309.179 27.8237 306.371 29.0626C303.563 30.3015 300.218 30.9209 296.336 30.9209H283.142L287.602 26.5229V43H277.567ZM305.132 43L294.292 27.2662H305.008L315.972 43H305.132ZM287.602 27.6379L283.142 22.9302H295.779C298.876 22.9302 301.188 22.2694 302.716 20.948C304.244 19.5852 305.008 17.7269 305.008 15.373C305.008 12.9779 304.244 11.1195 302.716 9.79807C301.188 8.4766 298.876 7.81587 295.779 7.81587H283.142L287.602 3.04618V27.6379ZM333.291 43V25.284L335.583 31.3545L316.504 -0.360731H327.159L341.777 23.9832H335.645L350.326 -0.360731H360.175L341.096 31.3545L343.326 25.284V43H333.291ZM373.179 17.1075H394.055V24.9124H373.179V17.1075ZM373.923 34.9473H397.523V43H363.95V-0.360731H396.718V7.69198H373.923V34.9473Z" fill="#3F3D3B"/>
<path d="M235.283 93.0359L235.159 89.0715L262.786 60.6393H266.626L247.3 80.6472L245.503 82.5674L235.283 93.0359ZM232.557 104V60.6393H235.716V104H232.557ZM264.087 104L244.574 81.7002L246.742 79.4083L267.927 104H264.087ZM292.479 104.31C287.111 104.31 282.878 102.74 279.781 99.602C276.683 96.4635 275.135 91.7971 275.135 85.6027V60.6393H278.294V85.4788C278.294 90.8885 279.533 94.8942 282.011 97.4959C284.488 100.098 287.999 101.398 292.541 101.398C297.042 101.398 300.532 100.098 303.01 97.4959C305.487 94.8942 306.726 90.8885 306.726 85.4788V60.6393H309.885V85.6027C309.885 91.7971 308.337 96.4635 305.24 99.602C302.142 102.74 297.889 104.31 292.479 104.31ZM324.626 104V60.6393H340.174C343.808 60.6393 346.926 61.2174 349.528 62.3737C352.129 63.53 354.132 65.2025 355.536 67.3912C356.94 69.5385 357.642 72.1608 357.642 75.258C357.642 78.2726 356.94 80.8743 355.536 83.063C354.132 85.2516 352.129 86.9241 349.528 88.0804C346.926 89.2367 343.808 89.8148 340.174 89.8148H326.361L327.785 88.3282V104H324.626ZM327.785 88.514L326.361 86.9654H340.174C344.84 86.9654 348.371 85.9537 350.766 83.9302C353.203 81.8654 354.421 78.9747 354.421 75.258C354.421 71.5001 353.203 68.6094 350.766 66.5859C348.371 64.5211 344.84 63.4887 340.174 63.4887H326.361L327.785 61.9401V88.514ZM371.089 80.5852H394.566V83.3727H371.089V80.5852ZM371.461 101.151H398.22V104H368.301V60.6393H397.291V63.4887H371.461V101.151ZM409.738 104V60.6393H425.286C428.92 60.6393 432.038 61.2174 434.64 62.3737C437.242 63.53 439.244 65.2025 440.648 67.3912C442.053 69.5385 442.755 72.1608 442.755 75.258C442.755 78.2726 442.053 80.8743 440.648 83.063C439.244 85.2104 437.242 86.8828 434.64 88.0804C432.038 89.2367 428.92 89.8148 425.286 89.8148H411.473L412.898 88.3282V104H409.738ZM439.843 104L428.569 88.2662H432.162L443.436 104H439.843ZM412.898 88.514L411.473 87.0274H425.286C429.953 87.0274 433.484 85.995 435.879 83.9302C438.315 81.8654 439.533 78.9747 439.533 75.258C439.533 71.5001 438.315 68.6094 435.879 66.5859C433.484 64.5211 429.953 63.4887 425.286 63.4887H411.473L412.898 61.9401V88.514ZM465.719 104.31C462.498 104.31 459.442 103.773 456.551 102.699C453.702 101.584 451.492 100.159 449.923 98.425L451.348 96.0712C452.834 97.5991 454.858 98.9 457.418 99.9736C460.02 101.006 462.766 101.522 465.657 101.522C468.548 101.522 470.901 101.151 472.718 100.407C474.577 99.6226 475.94 98.5902 476.807 97.3101C477.715 96.0299 478.17 94.6052 478.17 93.0359C478.17 91.1776 477.674 89.691 476.683 88.576C475.692 87.461 474.391 86.5731 472.78 85.9124C471.17 85.2516 469.415 84.6942 467.515 84.2399C465.616 83.7856 463.695 83.3107 461.754 82.8152C459.814 82.2783 458.038 81.597 456.427 80.771C454.817 79.9451 453.516 78.8301 452.525 77.4261C451.575 75.9807 451.1 74.1224 451.1 71.8511C451.1 69.7863 451.637 67.8867 452.711 66.1523C453.784 64.4178 455.457 63.0138 457.728 61.9401C459.999 60.8664 462.911 60.3295 466.462 60.3295C468.857 60.3295 471.211 60.6806 473.524 61.3826C475.878 62.0846 477.88 63.0344 479.532 64.232L478.355 66.7717C476.538 65.5328 474.577 64.6243 472.471 64.0462C470.406 63.4267 468.403 63.117 466.462 63.117C463.695 63.117 461.403 63.5093 459.586 64.294C457.769 65.0786 456.427 66.1316 455.56 67.4531C454.693 68.7333 454.259 70.1786 454.259 71.7892C454.259 73.6475 454.734 75.1341 455.684 76.2491C456.675 77.3641 457.976 78.252 459.586 78.9127C461.197 79.5735 462.973 80.1309 464.914 80.5852C466.854 81.0395 468.775 81.535 470.674 82.0719C472.574 82.5674 474.329 83.2281 475.94 84.0541C477.55 84.88 478.851 85.995 479.842 87.399C480.833 88.8031 481.329 90.6201 481.329 92.8501C481.329 94.8736 480.771 96.7732 479.656 98.5489C478.541 100.283 476.827 101.687 474.515 102.761C472.244 103.794 469.312 104.31 465.719 104.31ZM524.217 60.6393H527.376V104H524.217V60.6393ZM495.227 104H492.068V60.6393H495.227V104ZM524.589 83.3727H494.856V80.5852H524.589V83.3727ZM542.519 104V60.6393H545.182L565.314 95.3898H563.889L583.959 60.6393H586.561L586.623 104H583.525L583.464 65.409H584.331L565.314 98.2392H563.765L544.687 65.409H545.616V104H542.519ZM601.74 104V60.6393H604.899V104H601.74ZM628.309 104V63.4887H612.7V60.6393H647.078V63.4887H631.469V104H628.309Z" fill="#3F3D3B"/>
<g clip-path="url(#clip1_40_4576)">
<path d="M166.879 57.0243L137.073 101.792C136.533 102.604 136.832 103.36 136.986 103.645C137.139 103.93 137.6 104.598 138.58 104.598H198.191C199.166 104.598 199.631 103.93 199.785 103.645C199.938 103.36 200.237 102.604 199.697 101.792L169.891 57.0243C169.408 56.2997 168.679 56.2206 168.39 56.2206C168.1 56.2206 167.371 56.2997 166.888 57.0243H166.879Z" fill="#3F3D3B"/>
<path d="M123.631 104.374C124.606 104.374 125.071 103.706 125.225 103.421C125.379 103.136 125.677 102.38 125.133 101.568L57.8763 0.803654C57.3932 0.0790479 56.6642 0 56.3744 0C56.0845 0 55.3555 0.0790479 54.8725 0.803654L22.4013 49.5762C21.9929 50.1866 21.9973 50.9727 22.4013 51.5831L57.1956 103.57C57.5337 104.071 58.0915 104.374 58.6975 104.374H123.631Z" fill="#3F3D3B"/>
<path d="M16.9206 104.374C26.2657 104.374 33.8413 96.7983 33.8413 87.4533C33.8413 78.1083 26.2657 70.5327 16.9206 70.5327C7.57563 70.5327 0 78.1083 0 87.4533C0 96.7983 7.57563 104.374 16.9206 104.374Z" fill="#3F3D3B"/>
<path d="M131.413 0C130.714 0 130.064 0.346932 129.678 0.931008L97.1409 49.8046C96.7369 50.4106 96.7369 51.1967 97.1409 51.8071L129.612 100.575C130.095 101.304 130.824 101.379 131.114 101.379C131.404 101.379 132.133 101.3 132.616 100.575L197.422 3.24096C198.344 1.85763 197.352 0 195.687 0H131.413Z" fill="#3F3D3B"/>
</g>
</g>
<defs>
<clipPath id="clip0_40_4576">
<rect width="652" height="105" fill="white"/>
</clipPath>
<clipPath id="clip1_40_4576">
<rect width="200" height="104.598" fill="white"/>
</clipPath>
</defs>
</svg>
