<svg width="111" height="43" viewBox="0 0 111 43" fill="none" xmlns="http://www.w3.org/2000/svg">
<path d="M27.3332 24.9361L20.601 28.8229L20.6037 39.2976L36.4168 30.1679L27.3332 24.9361Z" fill="#FFC100"/>
<path d="M20.6009 28.8229L13.8593 24.9354L4.79199 30.1704L20.6036 39.2975L20.6009 28.8229Z" fill="#309CE9"/>
<path d="M13.8591 24.9355L13.8554 17.1396L4.78546 11.9L4.79184 30.1704L13.8591 24.9355Z" fill="#3059E9"/>
<path d="M13.8561 17.1396L20.5883 13.2527L20.5992 2.7702L4.78613 11.8999L13.8561 17.1396Z" fill="#E93030"/>
<path d="M27.3376 17.1538L36.4049 11.9188L20.5991 2.77013L20.5881 13.2527L27.3376 17.1538Z" fill="#F35D2D"/>
<path d="M27.3378 17.1537L27.3336 24.9359L36.4172 30.1676L36.405 11.9187L27.3378 17.1537Z" fill="#F3982D"/>
<path d="M43.7625 26.5103V10.179H47.1376V23.5706H52.037V26.5103H43.7625ZM58.9131 26.8732C57.8365 26.8732 56.8506 26.6131 55.9554 26.0929C55.0602 25.5727 54.3464 24.8711 53.8142 23.988C53.294 23.1049 53.0339 22.1311 53.0339 21.0665C53.0339 19.9899 53.294 19.016 53.8142 18.145C54.3464 17.2619 55.0602 16.5603 55.9554 16.0401C56.8506 15.5199 57.8365 15.2598 58.9131 15.2598C60.0019 15.2598 60.9878 15.5199 61.8709 16.0401C62.7661 16.5603 63.4738 17.2619 63.994 18.145C64.5263 19.016 64.7924 19.9899 64.7924 21.0665C64.7924 22.1311 64.5263 23.1049 63.994 23.988C63.4738 24.8711 62.7661 25.5727 61.8709 26.0929C60.9878 26.6131 60.0019 26.8732 58.9131 26.8732ZM58.9131 24.0424C59.4575 24.0424 59.9475 23.9094 60.383 23.6432C60.8306 23.3771 61.1814 23.0202 61.4354 22.5726C61.7016 22.1129 61.8346 21.6109 61.8346 21.0665C61.8346 20.51 61.7016 20.008 61.4354 19.5604C61.1814 19.1128 60.8306 18.7559 60.383 18.4898C59.9475 18.2237 59.4575 18.0906 58.9131 18.0906C58.3688 18.0906 57.8728 18.2237 57.4252 18.4898C56.9897 18.7559 56.6389 19.1128 56.3727 19.5604C56.1187 20.008 55.9917 20.51 55.9917 21.0665C55.9917 21.6109 56.1187 22.1129 56.3727 22.5726C56.6389 23.0202 56.9897 23.3771 57.4252 23.6432C57.8728 23.9094 58.3688 24.0424 58.9131 24.0424ZM66.6433 26.5103V15.6228H69.474V16.8204C69.8611 16.3123 70.339 15.9252 70.9075 15.659C71.4761 15.3929 72.087 15.2598 72.7403 15.2598C73.5145 15.2598 74.2343 15.4473 74.8996 15.8224C75.5771 16.1853 76.1214 16.7236 76.5327 17.4373C76.9562 18.139 77.1679 18.9918 77.1679 19.9959V26.5103H74.0105V20.4133C74.0105 19.8084 73.829 19.2701 73.4661 18.7983C73.1032 18.3265 72.583 18.0906 71.9056 18.0906C71.3612 18.0906 70.8712 18.2781 70.4357 18.6531C70.0123 19.016 69.8006 19.5906 69.8006 20.377V26.5103H66.6433ZM84.1052 32.3169C83.2584 32.3169 82.4479 32.1899 81.6737 31.9359C80.9116 31.6939 80.2523 31.3612 79.6958 30.9378L80.4579 27.8168C80.845 28.3369 81.3531 28.7603 81.9822 29.087C82.6112 29.4257 83.3189 29.595 84.1052 29.595C85.2182 29.595 86.0831 29.2745 86.7001 28.6333C87.317 28.0043 87.6255 27.1937 87.6255 26.2018V25.4396C87.2142 25.8631 86.7182 26.1957 86.1376 26.4377C85.569 26.6796 84.9399 26.8006 84.2504 26.8006C83.2463 26.8006 82.333 26.5405 81.5104 26.0203C80.6878 25.5001 80.0285 24.8106 79.5325 23.9517C79.0486 23.0807 78.8067 22.119 78.8067 21.0665C78.8067 20.014 79.0486 19.0523 79.5325 18.1813C80.0285 17.3103 80.6878 16.6208 81.5104 16.1127C82.333 15.5925 83.2463 15.3324 84.2504 15.3324C84.952 15.3324 85.5932 15.4594 86.1739 15.7135C86.7545 15.9554 87.2505 16.2941 87.6618 16.7296V15.6228H90.3837V26.6554C90.3837 27.8409 90.0934 28.8571 89.5127 29.7039C88.932 30.5507 88.1639 31.1979 87.2082 31.6455C86.2525 32.0931 85.2182 32.3169 84.1052 32.3169ZM84.6315 24.0243C85.1637 24.0243 85.6476 23.8912 86.0831 23.6251C86.5186 23.3589 86.8634 23.0021 87.1174 22.5545C87.3836 22.1069 87.5167 21.6109 87.5167 21.0665C87.5167 20.5221 87.3836 20.0261 87.1174 19.5785C86.8634 19.1309 86.5186 18.7741 86.0831 18.5079C85.6476 18.2418 85.1637 18.1087 84.6315 18.1087C84.0992 18.1087 83.6153 18.2418 83.1798 18.5079C82.7443 18.7741 82.3935 19.1309 82.1273 19.5785C81.8733 20.0261 81.7463 20.5221 81.7463 21.0665C81.7463 21.6109 81.8733 22.1069 82.1273 22.5545C82.3935 23.0021 82.7443 23.3589 83.1798 23.6251C83.6153 23.8912 84.0992 24.0243 84.6315 24.0243ZM92.8096 26.5103V9.09025H95.9669V26.5103H92.8096ZM98.115 31.954L101.744 24.6594L97.2984 15.6228H100.782L102.706 19.6148C102.875 19.9778 103.02 20.3104 103.141 20.6129C103.274 20.9032 103.383 21.1875 103.468 21.4657C103.565 21.1875 103.68 20.9032 103.813 20.6129C103.946 20.3104 104.103 19.9778 104.285 19.6148L106.244 15.6228H109.601L101.508 31.954H98.115Z" fill="#2F2E2E"/>
</svg>
