<svg width="63" height="28" viewBox="0 0 63 28" fill="none" xmlns="http://www.w3.org/2000/svg">
<path fill-rule="evenodd" clip-rule="evenodd" d="M18.1604 27.7842H18.0654C16.8139 27.7847 15.6659 27.0954 15.0869 25.9956L5.29228 7.45506V27.7842H0V0.19803H5.38725C6.63824 0.19723 7.78602 0.885641 8.36578 1.98448L18.1604 20.525V0.19803H23.4505V27.7842H18.1604ZM35.805 0.304747H31.3632L29.8933 3.20157H35.1834V25.2401H33.2927V5.08215H28.9393L27.6443 7.6388H30.5236V27.8203H37.9504V2.41425C37.9482 1.8525 37.7208 1.31467 37.3185 0.919057C36.9162 0.523447 36.3717 0.302473 35.805 0.304747ZM61.3448 25.2619H44.6845L53.5121 12.284C53.5186 12.2754 53.5229 12.2711 53.5272 12.2647C53.995 11.6499 54.3207 10.9407 54.4812 10.1873L54.4877 10.1531C54.5371 9.88701 54.5617 9.61701 54.5611 9.34648C54.5659 8.10504 54.0601 6.91526 53.1603 6.05172C51.2742 4.25459 48.293 4.25459 46.4068 6.05172C45.507 6.91526 45.0012 8.10504 45.0061 9.34648H47.8831C47.879 8.55177 48.3835 7.84181 49.1398 7.57805C49.8962 7.31429 50.738 7.55472 51.2368 8.17692C51.7356 8.79912 51.7817 9.66633 51.3516 10.3371C51.343 10.352 39.4958 27.8207 39.4958 27.8207H62.5492L61.3448 25.2619ZM40.2748 9.34631H43.1907C43.1851 7.61869 43.8814 5.96158 45.1224 4.74861C47.7044 2.21572 51.8624 2.21572 54.4444 4.74861C56.6488 6.90736 57.0093 10.3085 55.3056 12.8743L48.2348 23.4089H60.4727L59.2014 20.709H53.4062C53.4062 20.709 56.5078 16.3038 57.5913 14.5238C58.6747 12.7438 59.1561 11.1199 59.1949 9.33347C59.2013 8.71456 59.139 8.09683 59.0093 7.4914C58.0321 2.78351 53.6234 -0.430746 48.7984 0.0469737C43.9735 0.524693 40.2933 4.53984 40.2748 9.34631Z" fill="#3F3D3B"/>
</svg>
