<svg width="63" height="34" viewBox="0 0 63 34" fill="none" xmlns="http://www.w3.org/2000/svg">
<g clip-path="url(#clip0_383_145192)">
<path d="M53.2129 7.72661C53.2129 6.72557 52.4067 5.91406 51.4121 5.91406C50.4176 5.91406 49.6113 6.72557 49.6113 7.72661V13.7693C49.6113 14.7703 50.4176 15.5818 51.4121 15.5818C52.4067 15.5818 53.2129 14.7703 53.2129 13.7693V7.72661Z" fill="url(#paint0_linear_383_145192)"/>
<path d="M53.2129 21.0191C53.2129 20.018 52.4067 19.2065 51.4121 19.2065C50.4176 19.2065 49.6113 20.018 49.6113 21.0191V27.0618C49.6113 28.0628 50.4176 28.8743 51.4121 28.8743C52.4067 28.8743 53.2129 28.0628 53.2129 27.0618V21.0191Z" fill="url(#paint1_linear_383_145192)"/>
<path d="M42.0068 15.5815C41.0123 15.5815 40.2061 16.393 40.2061 17.394C40.2061 18.395 41.0123 19.2065 42.0068 19.2065H48.0103C49.0049 19.2065 49.8111 18.395 49.8111 17.394C49.8111 16.393 49.0049 15.5815 48.0103 15.5815H42.0068Z" fill="url(#paint2_linear_383_145192)"/>
<path d="M55.0166 15.5815C54.0221 15.5815 53.2158 16.393 53.2158 17.394C53.2158 18.395 54.0221 19.2065 55.0166 19.2065H61.0201C62.0147 19.2065 62.8209 18.395 62.8209 17.394C62.8209 16.393 62.0147 15.5815 61.0201 15.5815H55.0166Z" fill="url(#paint3_linear_383_145192)"/>
<path d="M9.1472 0.64366H4.10294L2.63212 3.62252H8.66886V30.6047H5.95489V6.3851H1.26874L0 8.95459H3.21533V33.2051H11.4059V2.92736C11.4059 1.66837 10.3929 0.64366 9.1472 0.64366ZM38.2131 30.6073H18.2484L28.9329 14.4798L28.9457 14.4617C29.5212 13.6456 29.8742 12.8552 30.0277 12.0416L30.0354 12.0055C30.0891 11.7017 30.1172 11.3876 30.1172 11.0735C30.1172 9.624 29.557 8.26974 28.539 7.26048C27.526 6.2538 26.1729 5.70025 24.7302 5.70025C23.2875 5.70025 21.9344 6.2538 20.9214 7.26048C19.9622 8.2131 19.4097 9.46952 19.3483 10.8238H22.249C22.3743 9.58795 23.4077 8.65079 24.7072 8.65079C24.7583 8.65079 24.8095 8.65079 24.8632 8.65594C26.1601 8.7306 27.1781 9.79393 27.1781 11.0761C27.1781 11.5498 27.0451 12.0133 26.7944 12.4123C26.7842 12.4304 17.3914 26.6501 13.0609 33.2077H39.4051L38.2131 30.6099V30.6073ZM19.0541 5.32435C20.571 3.79244 22.5866 2.95054 24.7302 2.95054C26.8737 2.95054 28.8894 3.79502 30.4063 5.32435C31.9231 6.85626 32.757 8.89023 32.757 11.0555C32.757 12.6363 32.3068 14.1682 31.4524 15.4865L23.3668 27.8602H36.952L35.6833 25.0924H28.5287L28.7973 24.6985C28.8331 24.6444 32.468 19.3433 33.7265 17.2192C34.9645 15.1337 35.5375 13.2311 35.5835 11.0529C35.5963 10.3861 35.3687 8.8722 35.3687 8.8722C34.3506 3.73065 29.8665 0 24.7072 0C18.7548 0 13.8973 4.83002 13.7643 10.8212H16.7059C16.7673 8.7409 17.5961 6.79705 19.0515 5.32435H19.0541Z" fill="#3F3D3B"/>
</g>
<defs>
<linearGradient id="paint0_linear_383_145192" x1="51.4121" y1="5.91406" x2="51.4121" y2="15.5818" gradientUnits="userSpaceOnUse">
<stop stop-color="#E21329"/>
<stop offset="1" stop-color="#F46A0B"/>
</linearGradient>
<linearGradient id="paint1_linear_383_145192" x1="51.4121" y1="28.8769" x2="51.4121" y2="19.2065" gradientUnits="userSpaceOnUse">
<stop stop-color="#23CD5B"/>
<stop offset="1" stop-color="#35C8C6"/>
</linearGradient>
<linearGradient id="paint2_linear_383_145192" x1="40.2061" y1="17.394" x2="49.8111" y2="17.394" gradientUnits="userSpaceOnUse">
<stop offset="0.12" stop-color="#8151F2"/>
<stop offset="0.89" stop-color="#409EFF"/>
</linearGradient>
<linearGradient id="paint3_linear_383_145192" x1="53.2133" y1="17.394" x2="62.8209" y2="17.394" gradientUnits="userSpaceOnUse">
<stop stop-color="#F8D332"/>
<stop offset="1" stop-color="#F78B0C"/>
</linearGradient>
<clipPath id="clip0_383_145192">
<rect width="62.8205" height="33.2051" fill="white"/>
</clipPath>
</defs>
</svg>
